<svg width="20" height="20" viewBox="0 0 20 20" fill="none" xmlns="http://www.w3.org/2000/svg">
<path d="M7.49981 12.4995H4.91648C4.58315 12.4995 4.33662 12.3502 4.1769 12.0515C4.01717 11.7529 4.03453 11.4647 4.22898 11.187L10.4581 2.22863C10.597 2.03418 10.7776 1.89877 10.9998 1.82238C11.222 1.74599 11.4512 1.74946 11.6873 1.8328C11.9234 1.91613 12.097 2.06196 12.2081 2.2703C12.3193 2.47863 12.3609 2.70085 12.3331 2.93696L11.6665 8.3328H14.8956C15.2568 8.3328 15.5102 8.49252 15.6561 8.81196C15.8019 9.13141 15.7568 9.43002 15.5206 9.7078L8.66648 17.9161C8.5137 18.0967 8.3262 18.2147 8.10398 18.2703C7.88176 18.3259 7.66648 18.305 7.45815 18.2078C7.24981 18.1106 7.08662 17.9613 6.96856 17.7599C6.85051 17.5585 6.80537 17.3397 6.83315 17.1036L7.49981 12.4995Z" fill="#171717"/>
</svg>
