<svg width="20" height="20" viewBox="0 0 20 20" fill="none" xmlns="http://www.w3.org/2000/svg">
<path d="M17.4998 17.166C17.3887 17.166 17.2846 17.1452 17.1873 17.1035C17.0901 17.0618 16.9998 16.9993 16.9165 16.916L14.9998 14.9993H6.6665C6.20817 14.9993 5.81581 14.8362 5.48942 14.5098C5.16303 14.1834 4.99984 13.791 4.99984 13.3327V12.4993H14.1665C14.6248 12.4993 15.0172 12.3362 15.3436 12.0098C15.67 11.6834 15.8332 11.291 15.8332 10.8327V4.99935H16.6665C17.1248 4.99935 17.5172 5.16254 17.8436 5.48893C18.17 5.81532 18.3332 6.20768 18.3332 6.66602V16.3118C18.3332 16.5618 18.2498 16.7667 18.0832 16.9264C17.9165 17.0862 17.7221 17.166 17.4998 17.166ZM2.49984 12.9993C2.27761 12.9993 2.08317 12.9195 1.9165 12.7598C1.74984 12.6 1.6665 12.3952 1.6665 12.1452V3.33268C1.6665 2.87435 1.8297 2.48199 2.15609 2.1556C2.48248 1.82921 2.87484 1.66602 3.33317 1.66602H12.4998C12.9582 1.66602 13.3505 1.82921 13.6769 2.1556C14.0033 2.48199 14.1665 2.87435 14.1665 3.33268V9.16602C14.1665 9.62435 14.0033 10.0167 13.6769 10.3431C13.3505 10.6695 12.9582 10.8327 12.4998 10.8327H4.99984L3.08317 12.7493C2.99984 12.8327 2.90956 12.8952 2.81234 12.9368C2.71511 12.9785 2.61095 12.9993 2.49984 12.9993Z" fill="#101010"/>
</svg>
