<svg width="20" height="20" viewBox="0 0 20 20" fill="none" xmlns="http://www.w3.org/2000/svg">
<path d="M10 4.16667C9.76389 4.16667 9.56597 4.08681 9.40625 3.92708C9.24653 3.76736 9.16667 3.56944 9.16667 3.33333C9.16667 3.09722 9.24653 2.89931 9.40625 2.73958C9.56597 2.57986 9.76389 2.5 10 2.5C10.2361 2.5 10.434 2.57986 10.5938 2.73958C10.7535 2.89931 10.8333 3.09722 10.8333 3.33333C10.8333 3.56944 10.7535 3.76736 10.5938 3.92708C10.434 4.08681 10.2361 4.16667 10 4.16667ZM13.3333 4.16667C13.0972 4.16667 12.8993 4.08681 12.7396 3.92708C12.5799 3.76736 12.5 3.56944 12.5 3.33333C12.5 3.09722 12.5799 2.89931 12.7396 2.73958C12.8993 2.57986 13.0972 2.5 13.3333 2.5C13.5694 2.5 13.7674 2.57986 13.9271 2.73958C14.0868 2.89931 14.1667 3.09722 14.1667 3.33333C14.1667 3.56944 14.0868 3.76736 13.9271 3.92708C13.7674 4.08681 13.5694 4.16667 13.3333 4.16667ZM16.6667 4.16667C16.4306 4.16667 16.2326 4.08681 16.0729 3.92708C15.9132 3.76736 15.8333 3.56944 15.8333 3.33333C15.8333 3.09722 15.9132 2.89931 16.0729 2.73958C16.2326 2.57986 16.4306 2.5 16.6667 2.5C16.9028 2.5 17.1007 2.57986 17.2604 2.73958C17.4201 2.89931 17.5 3.09722 17.5 3.33333C17.5 3.56944 17.4201 3.76736 17.2604 3.92708C17.1007 4.08681 16.9028 4.16667 16.6667 4.16667ZM16.6667 7.5C16.4306 7.5 16.2326 7.42014 16.0729 7.26042C15.9132 7.10069 15.8333 6.90278 15.8333 6.66667C15.8333 6.43056 15.9132 6.23264 16.0729 6.07292C16.2326 5.91319 16.4306 5.83333 16.6667 5.83333C16.9028 5.83333 17.1007 5.91319 17.2604 6.07292C17.4201 6.23264 17.5 6.43056 17.5 6.66667C17.5 6.90278 17.4201 7.10069 17.2604 7.26042C17.1007 7.42014 16.9028 7.5 16.6667 7.5ZM16.6667 10.8333C16.4306 10.8333 16.2326 10.7535 16.0729 10.5938C15.9132 10.434 15.8333 10.2361 15.8333 10C15.8333 9.76389 15.9132 9.56597 16.0729 9.40625C16.2326 9.24653 16.4306 9.16667 16.6667 9.16667C16.9028 9.16667 17.1007 9.24653 17.2604 9.40625C17.4201 9.56597 17.5 9.76389 17.5 10C17.5 10.2361 17.4201 10.434 17.2604 10.5938C17.1007 10.7535 16.9028 10.8333 16.6667 10.8333ZM16.6667 14.1667C16.4306 14.1667 16.2326 14.0868 16.0729 13.9271C15.9132 13.7674 15.8333 13.5694 15.8333 13.3333C15.8333 13.0972 15.9132 12.8993 16.0729 12.7396C16.2326 12.5799 16.4306 12.5 16.6667 12.5C16.9028 12.5 17.1007 12.5799 17.2604 12.7396C17.4201 12.8993 17.5 13.0972 17.5 13.3333C17.5 13.5694 17.4201 13.7674 17.2604 13.9271C17.1007 14.0868 16.9028 14.1667 16.6667 14.1667ZM10 17.5C9.76389 17.5 9.56597 17.4201 9.40625 17.2604C9.24653 17.1007 9.16667 16.9028 9.16667 16.6667C9.16667 16.4306 9.24653 16.2326 9.40625 16.0729C9.56597 15.9132 9.76389 15.8333 10 15.8333C10.2361 15.8333 10.434 15.9132 10.5938 16.0729C10.7535 16.2326 10.8333 16.4306 10.8333 16.6667C10.8333 16.9028 10.7535 17.1007 10.5938 17.2604C10.434 17.4201 10.2361 17.5 10 17.5ZM13.3333 17.5C13.0972 17.5 12.8993 17.4201 12.7396 17.2604C12.5799 17.1007 12.5 16.9028 12.5 16.6667C12.5 16.4306 12.5799 16.2326 12.7396 16.0729C12.8993 15.9132 13.0972 15.8333 13.3333 15.8333C13.5694 15.8333 13.7674 15.9132 13.9271 16.0729C14.0868 16.2326 14.1667 16.4306 14.1667 16.6667C14.1667 16.9028 14.0868 17.1007 13.9271 17.2604C13.7674 17.4201 13.5694 17.5 13.3333 17.5ZM16.6667 17.5C16.4306 17.5 16.2326 17.4201 16.0729 17.2604C15.9132 17.1007 15.8333 16.9028 15.8333 16.6667C15.8333 16.4306 15.9132 16.2326 16.0729 16.0729C16.2326 15.9132 16.4306 15.8333 16.6667 15.8333C16.9028 15.8333 17.1007 15.9132 17.2604 16.0729C17.4201 16.2326 17.5 16.4306 17.5 16.6667C17.5 16.9028 17.4201 17.1007 17.2604 17.2604C17.1007 17.4201 16.9028 17.5 16.6667 17.5ZM3.33333 17.5C3.09722 17.5 2.89931 17.4201 2.73958 17.2604C2.57986 17.1007 2.5 16.9028 2.5 16.6667C2.5 16.4306 2.57986 16.2326 2.73958 16.0729C2.89931 15.9132 3.09722 15.8333 3.33333 15.8333H4.16667V4.16667H3.33333C3.09722 4.16667 2.89931 4.08681 2.73958 3.92708C2.57986 3.76736 2.5 3.56944 2.5 3.33333C2.5 3.09722 2.57986 2.89931 2.73958 2.73958C2.89931 2.57986 3.09722 2.5 3.33333 2.5H6.66667C6.90278 2.5 7.10069 2.57986 7.26042 2.73958C7.42014 2.89931 7.5 3.09722 7.5 3.33333C7.5 3.56944 7.42014 3.76736 7.26042 3.92708C7.10069 4.08681 6.90278 4.16667 6.66667 4.16667H5.83333V15.8333H6.66667C6.90278 15.8333 7.10069 15.9132 7.26042 16.0729C7.42014 16.2326 7.5 16.4306 7.5 16.6667C7.5 16.9028 7.42014 17.1007 7.26042 17.2604C7.10069 17.4201 6.90278 17.5 6.66667 17.5H3.33333Z" fill="#030303"/>
</svg>
