<svg width="20" height="20" viewBox="0 0 20 20" fill="none" xmlns="http://www.w3.org/2000/svg">
<path d="M9.83341 17.0824C9.83341 17.2491 10.0834 17.2491 10.1667 17.0824C10.5001 15.3324 11.2501 13.8324 12.5834 12.5824C13.9167 11.3324 15.3334 10.4991 17.0834 10.1658C18.8334 9.83243 17.2501 9.91577 17.0834 9.83243C15.3334 9.4991 13.8334 8.7491 12.5834 7.41577C11.3334 6.08243 10.5001 4.66577 10.1667 2.91577C9.83341 1.16577 9.91674 2.7491 9.83341 2.91577C9.50008 4.66577 8.75008 6.16577 7.41674 7.41577C6.16674 8.66577 4.66674 9.4991 2.91674 9.83243C1.16674 10.1658 2.75008 10.0824 2.91674 10.1658C4.66674 10.4991 6.16674 11.2491 7.41674 12.5824C8.66674 13.8324 9.50008 15.3324 9.83341 17.0824Z" fill="#101010"/>
</svg>
