<svg width="20" height="20" viewBox="0 0 20 20" fill="none" xmlns="http://www.w3.org/2000/svg">
<path d="M9.99935 12.4791C9.88824 12.4791 9.78407 12.4617 9.68685 12.427C9.58963 12.3923 9.49935 12.3333 9.41602 12.2499L5.58268 8.41659C5.4299 8.26381 5.35352 8.06936 5.35352 7.83325C5.35352 7.59714 5.4299 7.4027 5.58268 7.24992C5.73546 7.09714 5.9299 7.02075 6.16602 7.02075C6.40213 7.02075 6.59657 7.09714 6.74935 7.24992L9.99935 10.4999L13.2493 7.24992C13.4021 7.09714 13.5966 7.02075 13.8327 7.02075C14.0688 7.02075 14.2632 7.09714 14.416 7.24992C14.5688 7.4027 14.6452 7.59714 14.6452 7.83325C14.6452 8.06936 14.5688 8.26381 14.416 8.41659L10.5827 12.2499C10.4993 12.3333 10.4091 12.3923 10.3118 12.427C10.2146 12.4617 10.1105 12.4791 9.99935 12.4791Z" fill="#1A1A1A"/>
</svg>
