<svg width="20" height="20" viewBox="0 0 20 20" fill="none" xmlns="http://www.w3.org/2000/svg">
<path d="M9.99935 9L6.74935 12.25C6.59657 12.4028 6.40213 12.4792 6.16602 12.4792C5.9299 12.4792 5.73546 12.4028 5.58268 12.25C5.4299 12.0972 5.35352 11.9028 5.35352 11.6667C5.35352 11.4306 5.4299 11.2361 5.58268 11.0833L9.41602 7.25C9.58268 7.08333 9.77713 7 9.99935 7C10.2216 7 10.416 7.08333 10.5827 7.25L14.416 11.0833C14.5688 11.2361 14.6452 11.4306 14.6452 11.6667C14.6452 11.9028 14.5688 12.0972 14.416 12.25C14.2632 12.4028 14.0688 12.4792 13.8327 12.4792C13.5966 12.4792 13.4021 12.4028 13.2493 12.25L9.99935 9Z" fill="#1A1A1A"/>
</svg>
