<svg width="20" height="20" viewBox="0 0 20 20" fill="none" xmlns="http://www.w3.org/2000/svg">
<path d="M19 19.2992C18.8667 19.2992 18.7417 19.2742 18.625 19.2242C18.5083 19.1742 18.4 19.0992 18.3 18.9992L16 16.6992H6C5.45 16.6992 4.97917 16.5034 4.5875 16.1117C4.19583 15.7201 4 15.2492 4 14.6992V13.6992H15C15.55 13.6992 16.0208 13.5034 16.4125 13.1117C16.8042 12.7201 17 12.2492 17 11.6992V4.69922H18C18.55 4.69922 19.0208 4.89505 19.4125 5.28672C19.8042 5.67839 20 6.14922 20 6.69922V18.2742C20 18.5742 19.9 18.8201 19.7 19.0117C19.5 19.2034 19.2667 19.2992 19 19.2992ZM1 14.2992C0.733333 14.2992 0.5 14.2034 0.3 14.0117C0.1 13.8201 0 13.5742 0 13.2742V2.69922C0 2.14922 0.195833 1.67839 0.5875 1.28672C0.979167 0.895052 1.45 0.699219 2 0.699219H13C13.55 0.699219 14.0208 0.895052 14.4125 1.28672C14.8042 1.67839 15 2.14922 15 2.69922V9.69922C15 10.2492 14.8042 10.7201 14.4125 11.1117C14.0208 11.5034 13.55 11.6992 13 11.6992H4L1.7 13.9992C1.6 14.0992 1.49167 14.1742 1.375 14.2242C1.25833 14.2742 1.13333 14.2992 1 14.2992Z" fill="white"/>
</svg>
