<svg width="21" height="20" viewBox="0 0 21 20" fill="none" xmlns="http://www.w3.org/2000/svg">
<path d="M10.5 9.52083L12.2917 11.3125C12.4444 11.4653 12.6227 11.5417 12.8265 11.5417C13.0301 11.5417 13.206 11.4653 13.3542 11.3125C13.5069 11.1643 13.5833 10.9884 13.5833 10.7848C13.5833 10.581 13.5074 10.4032 13.3554 10.2513L11.0196 7.91542C10.8676 7.76347 10.6932 7.6875 10.4963 7.6875C10.2993 7.6875 10.1269 7.76389 9.97917 7.91667L7.64271 10.2531C7.49201 10.4038 7.41986 10.5776 7.42625 10.7746C7.43264 10.9715 7.51278 11.1439 7.66667 11.2917C7.81944 11.4444 7.99653 11.5208 8.19792 11.5208C8.39931 11.5208 8.57479 11.446 8.72437 11.2965L10.5 9.52083ZM10.5058 18C9.40472 18 8.36806 17.7917 7.39583 17.375C6.42361 16.9583 5.57292 16.3854 4.84375 15.6562C4.11458 14.9271 3.54167 14.0767 3.125 13.105C2.70833 12.1333 2.5 11.0951 2.5 9.99042C2.5 8.88569 2.70833 7.85069 3.125 6.88542C3.54167 5.92014 4.11458 5.07292 4.84375 4.34375C5.57292 3.61458 6.42333 3.04167 7.395 2.625C8.36667 2.20833 9.40486 2 10.5096 2C11.6143 2 12.6493 2.20833 13.6146 2.625C14.5799 3.04167 15.4271 3.61458 16.1562 4.34375C16.8854 5.07292 17.4583 5.92167 17.875 6.89C18.2917 7.85847 18.5 8.89319 18.5 9.99417C18.5 11.0953 18.2917 12.1319 17.875 13.1042C17.4583 14.0764 16.8854 14.9271 16.1562 15.6562C15.4271 16.3854 14.5783 16.9583 13.61 17.375C12.6415 17.7917 11.6068 18 10.5058 18Z" fill="#CCCCCC"/>
</svg>
