<svg width="21" height="20" viewBox="0 0 21 20" fill="none" xmlns="http://www.w3.org/2000/svg">
<path d="M10.5 10.4792L8.70833 8.6875C8.55556 8.53472 8.37729 8.45833 8.17354 8.45833C7.96993 8.45833 7.79403 8.53472 7.64583 8.6875C7.49306 8.83569 7.41667 9.0116 7.41667 9.21521C7.41667 9.41896 7.49264 9.59681 7.64458 9.74875L9.98042 12.0846C10.1324 12.2365 10.3068 12.3125 10.5037 12.3125C10.7007 12.3125 10.8731 12.2361 11.0208 12.0833L13.3573 9.74688C13.508 9.59618 13.5833 9.42014 13.5833 9.21875C13.5833 9.01736 13.5069 8.83695 13.3542 8.6775C13.2014 8.53139 13.0243 8.45833 12.8229 8.45833C12.6215 8.45833 12.4453 8.53389 12.2942 8.685L10.5 10.4792ZM10.5058 18C9.40472 18 8.36806 17.7917 7.39583 17.375C6.42361 16.9583 5.57292 16.3854 4.84375 15.6562C4.11458 14.9271 3.54167 14.0767 3.125 13.105C2.70833 12.1333 2.5 11.0951 2.5 9.99042C2.5 8.88569 2.70833 7.85069 3.125 6.88542C3.54167 5.92014 4.11458 5.07292 4.84375 4.34375C5.57292 3.61458 6.42333 3.04167 7.395 2.625C8.36667 2.20833 9.40486 2 10.5096 2C11.6143 2 12.6493 2.20833 13.6146 2.625C14.5799 3.04167 15.4271 3.61458 16.1562 4.34375C16.8854 5.07292 17.4583 5.92167 17.875 6.89C18.2917 7.85847 18.5 8.89319 18.5 9.99417C18.5 11.0953 18.2917 12.1319 17.875 13.1042C17.4583 14.0764 16.8854 14.9271 16.1562 15.6562C15.4271 16.3854 14.5783 16.9583 13.61 17.375C12.6415 17.7917 11.6068 18 10.5058 18Z" fill="#CCCCCC"/>
</svg>
