<svg width="20" height="20" viewBox="0 0 20 20" fill="none" xmlns="http://www.w3.org/2000/svg">
<path d="M2.5 13.0001C2.125 13.0001 1.78125 12.8438 1.46875 12.5313C1.15625 12.2188 1 11.8751 1 11.5001V10.3126C1 10.2015 1.01042 10.0973 1.03125 10.0001C1.05208 9.90286 1.08333 9.81258 1.125 9.72925L3.60417 3.91675C3.72917 3.62508 3.96181 3.39591 4.30208 3.22925C4.64236 3.06258 4.97222 2.97925 5.29167 2.97925L14.5 3.00008V13.0001L9.625 17.8751C9.36111 18.139 9.05903 18.3091 8.71875 18.3855C8.37847 18.4619 8.07292 18.4237 7.80208 18.2709C7.53125 18.1181 7.35764 17.8716 7.28125 17.5313C7.20486 17.1911 7.20833 16.8195 7.29167 16.4167L8 13.0001H2.5ZM13 12.3751V4.50008H5L2.5 10.3126V11.5001H9.83333L8.8125 16.5417L13 12.3751ZM17.5 3.00008C17.9306 3.00008 18.2882 3.14696 18.5729 3.44071C18.8576 3.73446 19 4.08758 19 4.50008V11.5001C19 11.9126 18.8576 12.2657 18.5729 12.5595C18.2882 12.8532 17.9306 13.0001 17.5 13.0001H14.5V11.5001H17.5V4.50008H14.5V3.00008H17.5Z" fill="#1A1A1A"/>
</svg>
