<svg width="20" height="20" viewBox="0 0 20 20" fill="none" xmlns="http://www.w3.org/2000/svg">
<path d="M17.5 6.97928C17.875 6.97928 18.2188 7.13553 18.5312 7.44803C18.8438 7.76053 19 8.10428 19 8.47928V9.66678C19 9.77789 18.9896 9.88205 18.9688 9.97928C18.9479 10.0765 18.9167 10.1668 18.875 10.2501L16.3958 16.0626C16.2708 16.3543 16.0382 16.5834 15.6979 16.7501C15.3576 16.9168 15.0278 17.0001 14.7083 17.0001L5.5 16.9793V6.97928L10.375 2.10428C10.6389 1.84039 10.941 1.67025 11.2812 1.59386C11.6215 1.51747 11.9271 1.55566 12.1979 1.70844C12.4688 1.86122 12.6424 2.10775 12.7188 2.44803C12.7951 2.7883 12.7917 3.15983 12.7083 3.56261L12 6.97928H17.5ZM7 7.60428V15.4793H15L17.5 9.66678V8.47928H10.1667L11.1875 3.43761L7 7.60428ZM2.5 16.9793C2.06944 16.9793 1.71181 16.8324 1.42708 16.5387C1.14236 16.2449 1 15.8918 1 15.4793V8.47928C1 8.06678 1.14236 7.71365 1.42708 7.4199C1.71181 7.12615 2.06944 6.97928 2.5 6.97928H5.5V8.47928H2.5V15.4793H5.5V16.9793H2.5Z" fill="#1A1A1A"/>
</svg>
