<svg width="20" height="20" viewBox="0 0 20 20" fill="none" xmlns="http://www.w3.org/2000/svg">
<path d="M2.5 13.0001C2.125 13.0001 1.78125 12.8473 1.46875 12.5418C1.15625 12.2362 1 11.889 1 11.5001V10.3126C1 10.2015 1.01042 10.1008 1.03125 10.0105C1.05208 9.92026 1.08333 9.82651 1.125 9.72929L3.60417 3.91679C3.71528 3.63901 3.89583 3.41679 4.14583 3.25012C4.39583 3.08346 4.68056 3.00012 5 3.00012H13C13.4167 3.00012 13.7708 3.14248 14.0625 3.42721C14.3542 3.71193 14.5 4.06957 14.5 4.50012V12.3751C14.5 12.5835 14.4583 12.7814 14.375 12.9689C14.2917 13.1564 14.1806 13.3196 14.0417 13.4585L9.85417 17.646C9.60417 17.896 9.29861 18.0557 8.9375 18.1251C8.57639 18.1946 8.27083 18.1529 8.02083 18.0001C7.70139 17.8196 7.49653 17.5557 7.40625 17.2085C7.31597 16.8612 7.30556 16.521 7.375 16.1876L8 13.0001H2.5ZM17.5 3.00012C17.9028 3.00012 18.2535 3.14943 18.5521 3.44804C18.8507 3.74665 19 4.09734 19 4.50012V11.5001C19 11.9029 18.8507 12.2536 18.5521 12.5522C18.2535 12.8508 17.9028 13.0001 17.5 13.0001C17.0972 13.0001 16.7465 12.8508 16.4479 12.5522C16.1493 12.2536 16 11.9029 16 11.5001V4.50012C16 4.09734 16.1493 3.74665 16.4479 3.44804C16.7465 3.14943 17.0972 3.00012 17.5 3.00012Z" fill="#1A1A1A"/>
</svg>
