<svg width="20" height="20" viewBox="0 0 20 20" fill="none" xmlns="http://www.w3.org/2000/svg">
<path d="M10 15.0001L7.0625 16.1876C6.57639 16.3821 6.11111 16.33 5.66667 16.0314C5.22222 15.7328 5 15.3196 5 14.7918V4.50012C5 4.08762 5.14687 3.7345 5.44062 3.44075C5.73437 3.147 6.0875 3.00012 6.5 3.00012H13.5C13.9125 3.00012 14.2656 3.147 14.5594 3.44075C14.8531 3.7345 15 4.08762 15 4.50012V14.7918C15 15.3196 14.7778 15.7328 14.3333 16.0314C13.8889 16.33 13.4236 16.3821 12.9375 16.1876L10 15.0001ZM10 13.3751L13.5 14.771V4.50012H6.5V14.771L10 13.3751ZM10 4.50012H6.5H13.5H10Z" fill="#1A1A1A"/>
</svg>
