<svg width="10" height="18" viewBox="0 0 10 18" fill="none" xmlns="http://www.w3.org/2000/svg">
<path d="M8.33333 2.39591V8.22925L9.75 9.64592C9.83333 9.72925 9.89583 9.823 9.9375 9.92717C9.97917 10.0313 10 10.139 10 10.2501V10.7292C10 10.9654 9.92014 11.1633 9.76042 11.323C9.60069 11.4827 9.40278 11.5626 9.16667 11.5626H5.83333V16.4376C5.83333 16.6737 5.75347 16.8716 5.59375 17.0313C5.43403 17.1911 5.23611 17.2709 5 17.2709C4.76389 17.2709 4.56597 17.1911 4.40625 17.0313C4.24653 16.8716 4.16667 16.6737 4.16667 16.4376V11.5626H0.833333C0.597222 11.5626 0.399306 11.4827 0.239583 11.323C0.0798611 11.1633 0 10.9654 0 10.7292V10.2501C0 10.139 0.0208333 10.0313 0.0625 9.92717C0.104167 9.823 0.166667 9.72925 0.25 9.64592L1.66667 8.22925V2.39591C1.43056 2.39591 1.23264 2.31605 1.07292 2.15633C0.913194 1.99661 0.833333 1.79869 0.833333 1.56258C0.833333 1.32647 0.913194 1.12855 1.07292 0.968831C1.23264 0.809109 1.43056 0.729248 1.66667 0.729248H8.33333C8.56944 0.729248 8.76736 0.809109 8.92708 0.968831C9.08681 1.12855 9.16667 1.32647 9.16667 1.56258C9.16667 1.79869 9.08681 1.99661 8.92708 2.15633C8.76736 2.31605 8.56944 2.39591 8.33333 2.39591Z" fill="black"/>
</svg>
