<svg width="20" height="20" viewBox="0 0 20 20" fill="none" xmlns="http://www.w3.org/2000/svg">
<path d="M9.99967 16.6673C8.13856 16.6673 6.56217 16.0215 5.27051 14.7298C3.97884 13.4382 3.33301 11.8618 3.33301 10.0007C3.33301 8.13954 3.97884 6.56315 5.27051 5.27148C6.56217 3.97982 8.13856 3.33398 9.99967 3.33398C10.958 3.33398 11.8747 3.5319 12.7497 3.92773C13.6247 4.32357 14.3747 4.88954 14.9997 5.62565V4.16732C14.9997 3.93121 15.0795 3.73329 15.2393 3.57357C15.399 3.41385 15.5969 3.33398 15.833 3.33398C16.0691 3.33398 16.267 3.41385 16.4268 3.57357C16.5865 3.73329 16.6663 3.93121 16.6663 4.16732V8.33398C16.6663 8.5701 16.5865 8.76801 16.4268 8.92773C16.267 9.08746 16.0691 9.16732 15.833 9.16732H11.6663C11.4302 9.16732 11.2323 9.08746 11.0726 8.92773C10.9129 8.76801 10.833 8.5701 10.833 8.33398C10.833 8.09787 10.9129 7.89996 11.0726 7.74023C11.2323 7.58051 11.4302 7.50065 11.6663 7.50065H14.333C13.8886 6.72287 13.2809 6.11176 12.5101 5.66732C11.7393 5.22287 10.9025 5.00065 9.99967 5.00065C8.61079 5.00065 7.43023 5.48676 6.45801 6.45898C5.48579 7.43121 4.99967 8.61176 4.99967 10.0007C4.99967 11.3895 5.48579 12.5701 6.45801 13.5423C7.43023 14.5145 8.61079 15.0007 9.99967 15.0007C10.9441 15.0007 11.8087 14.7611 12.5934 14.2819C13.3781 13.8027 13.9858 13.1604 14.4163 12.3548C14.5275 12.1604 14.6837 12.025 14.8851 11.9486C15.0865 11.8722 15.2913 11.8687 15.4997 11.9382C15.7219 12.0076 15.8816 12.1534 15.9788 12.3757C16.0761 12.5979 16.0691 12.8062 15.958 13.0007C15.3886 14.1118 14.5761 15.0007 13.5205 15.6673C12.465 16.334 11.2913 16.6673 9.99967 16.6673Z" fill="#CCCCCC"/>
</svg>
