<svg width="21" height="20" viewBox="0 0 21 20" fill="none" xmlns="http://www.w3.org/2000/svg">
<path d="M3.83333 17.5C3.59722 17.5 3.39931 17.4201 3.23958 17.2604C3.07986 17.1007 3 16.9028 3 16.6667C3 16.4306 3.07986 16.2326 3.23958 16.0729C3.39931 15.9132 3.59722 15.8333 3.83333 15.8333H17.1667C17.4028 15.8333 17.6007 15.9132 17.7604 16.0729C17.9201 16.2326 18 16.4306 18 16.6667C18 16.9028 17.9201 17.1007 17.7604 17.2604C17.6007 17.4201 17.4028 17.5 17.1667 17.5H3.83333ZM3.83333 14.1667C3.59722 14.1667 3.39931 14.0868 3.23958 13.9271C3.07986 13.7674 3 13.5694 3 13.3333C3 13.0972 3.07986 12.8993 3.23958 12.7396C3.39931 12.5799 3.59722 12.5 3.83333 12.5H12.1667C12.4028 12.5 12.6007 12.5799 12.7604 12.7396C12.9201 12.8993 13 13.0972 13 13.3333C13 13.5694 12.9201 13.7674 12.7604 13.9271C12.6007 14.0868 12.4028 14.1667 12.1667 14.1667H3.83333ZM3.83333 10.8333C3.59722 10.8333 3.39931 10.7535 3.23958 10.5938C3.07986 10.434 3 10.2361 3 10C3 9.76389 3.07986 9.56597 3.23958 9.40625C3.39931 9.24653 3.59722 9.16667 3.83333 9.16667H17.1667C17.4028 9.16667 17.6007 9.24653 17.7604 9.40625C17.9201 9.56597 18 9.76389 18 10C18 10.2361 17.9201 10.434 17.7604 10.5938C17.6007 10.7535 17.4028 10.8333 17.1667 10.8333H3.83333ZM3.83333 7.5C3.59722 7.5 3.39931 7.42014 3.23958 7.26042C3.07986 7.10069 3 6.90278 3 6.66667C3 6.43056 3.07986 6.23264 3.23958 6.07292C3.39931 5.91319 3.59722 5.83333 3.83333 5.83333H12.1667C12.4028 5.83333 12.6007 5.91319 12.7604 6.07292C12.9201 6.23264 13 6.43056 13 6.66667C13 6.90278 12.9201 7.10069 12.7604 7.26042C12.6007 7.42014 12.4028 7.5 12.1667 7.5H3.83333ZM3.83333 4.16667C3.59722 4.16667 3.39931 4.08681 3.23958 3.92708C3.07986 3.76736 3 3.56944 3 3.33333C3 3.09722 3.07986 2.89931 3.23958 2.73958C3.39931 2.57986 3.59722 2.5 3.83333 2.5H17.1667C17.4028 2.5 17.6007 2.57986 17.7604 2.73958C17.9201 2.89931 18 3.09722 18 3.33333C18 3.56944 17.9201 3.76736 17.7604 3.92708C17.6007 4.08681 17.4028 4.16667 17.1667 4.16667H3.83333Z" fill="#010101"/>
</svg>
