<svg width="21" height="20" viewBox="0 0 21 20" fill="none" xmlns="http://www.w3.org/2000/svg">
<path d="M3.83333 17.5C3.59722 17.5 3.39931 17.4201 3.23958 17.2604C3.07986 17.1007 3 16.9028 3 16.6667C3 16.4306 3.07986 16.2326 3.23958 16.0729C3.39931 15.9132 3.59722 15.8333 3.83333 15.8333H17.1667C17.4028 15.8333 17.6007 15.9132 17.7604 16.0729C17.9201 16.2326 18 16.4306 18 16.6667C18 16.9028 17.9201 17.1007 17.7604 17.2604C17.6007 17.4201 17.4028 17.5 17.1667 17.5H3.83333ZM7.16667 14.1667C6.93056 14.1667 6.73264 14.0868 6.57292 13.9271C6.41319 13.7674 6.33333 13.5694 6.33333 13.3333C6.33333 13.0972 6.41319 12.8993 6.57292 12.7396C6.73264 12.5799 6.93056 12.5 7.16667 12.5H13.8333C14.0694 12.5 14.2674 12.5799 14.4271 12.7396C14.5868 12.8993 14.6667 13.0972 14.6667 13.3333C14.6667 13.5694 14.5868 13.7674 14.4271 13.9271C14.2674 14.0868 14.0694 14.1667 13.8333 14.1667H7.16667ZM3.83333 10.8333C3.59722 10.8333 3.39931 10.7535 3.23958 10.5938C3.07986 10.434 3 10.2361 3 10C3 9.76389 3.07986 9.56597 3.23958 9.40625C3.39931 9.24653 3.59722 9.16667 3.83333 9.16667H17.1667C17.4028 9.16667 17.6007 9.24653 17.7604 9.40625C17.9201 9.56597 18 9.76389 18 10C18 10.2361 17.9201 10.434 17.7604 10.5938C17.6007 10.7535 17.4028 10.8333 17.1667 10.8333H3.83333ZM7.16667 7.5C6.93056 7.5 6.73264 7.42014 6.57292 7.26042C6.41319 7.10069 6.33333 6.90278 6.33333 6.66667C6.33333 6.43056 6.41319 6.23264 6.57292 6.07292C6.73264 5.91319 6.93056 5.83333 7.16667 5.83333H13.8333C14.0694 5.83333 14.2674 5.91319 14.4271 6.07292C14.5868 6.23264 14.6667 6.43056 14.6667 6.66667C14.6667 6.90278 14.5868 7.10069 14.4271 7.26042C14.2674 7.42014 14.0694 7.5 13.8333 7.5H7.16667ZM3.83333 4.16667C3.59722 4.16667 3.39931 4.08681 3.23958 3.92708C3.07986 3.76736 3 3.56944 3 3.33333C3 3.09722 3.07986 2.89931 3.23958 2.73958C3.39931 2.57986 3.59722 2.5 3.83333 2.5H17.1667C17.4028 2.5 17.6007 2.57986 17.7604 2.73958C17.9201 2.89931 18 3.09722 18 3.33333C18 3.56944 17.9201 3.76736 17.7604 3.92708C17.6007 4.08681 17.4028 4.16667 17.1667 4.16667H3.83333Z" fill="#1A1A1A"/>
</svg>
